<?xml version="1.0" standalone="no"?>
<!DOCTYPE svg PUBLIC "-//W3C//DTD SVG 20010904//EN"
 "http://www.w3.org/TR/2001/REC-SVG-20010904/DTD/svg10.dtd">
<svg version="1.0" xmlns="http://www.w3.org/2000/svg"
 width="1907.000000pt" height="319.000000pt" viewBox="0 0 1907.000000 319.000000"
 preserveAspectRatio="xMidYMid meet">

<g transform="translate(0.000000,319.000000) scale(0.100000,-0.100000)"
fill="#000000" stroke="none">
<path d="M0 1595 l0 -1595 1595 0 1595 0 0 1595 0 1595 -1595 0 -1595 0 0
-1595z m1353 493 c132 -202 242 -366 246 -364 4 3 112 169 241 370 l235 365
168 1 c92 0 167 -2 167 -5 0 -3 -153 -235 -340 -515 l-340 -510 0 -350 0 -350
-135 0 -135 0 0 350 0 350 -340 510 c-187 280 -340 512 -340 515 0 3 75 4 167
3 l168 -3 238 -367z"/>
<path d="M14750 1600 l0 -800 114 0 115 0 3 353 3 352 31 66 c59 125 146 184
269 183 122 -1 207 -67 245 -192 18 -59 20 -94 20 -413 l0 -349 115 0 115 0 0
359 c0 394 -7 463 -56 568 -40 84 -142 183 -219 212 -171 64 -362 20 -481
-113 l-44 -48 0 311 0 311 -115 0 -115 0 0 -800z"/>
<path d="M18700 1600 l0 -800 115 0 115 0 0 800 0 800 -115 0 -115 0 0 -800z"/>
<path d="M4322 2376 c-290 -56 -460 -294 -398 -557 28 -119 106 -207 241 -270
77 -36 138 -53 386 -108 105 -24 202 -66 236 -102 64 -70 54 -189 -23 -261
-57 -53 -138 -81 -249 -86 -204 -9 -361 71 -427 216 -21 47 -22 47 -69 28 -19
-7 -66 -25 -106 -40 l-72 -27 14 -45 c41 -138 175 -262 343 -319 203 -69 454
-54 625 37 259 138 329 489 135 671 -78 73 -170 112 -415 173 -301 76 -378
121 -391 229 -10 95 55 185 162 222 76 27 233 24 307 -5 79 -31 142 -90 180
-168 17 -35 35 -64 38 -64 3 0 51 18 106 39 95 37 100 41 99 68 -3 55 -55 146
-123 214 -72 71 -154 117 -256 144 -85 23 -254 28 -343 11z"/>
<path d="M12602 2376 c-290 -56 -460 -294 -398 -557 28 -119 106 -207 241
-270 77 -36 138 -53 386 -108 105 -24 202 -66 236 -102 64 -70 54 -189 -23
-261 -57 -53 -138 -81 -249 -86 -204 -9 -361 71 -427 216 -21 47 -22 47 -69
28 -19 -7 -66 -25 -106 -40 l-72 -27 14 -45 c41 -138 175 -262 343 -319 203
-69 454 -54 625 37 259 138 329 489 135 671 -78 73 -170 112 -415 173 -301 76
-378 121 -391 229 -10 95 55 185 162 222 76 27 233 24 307 -5 79 -31 142 -90
180 -168 17 -35 35 -64 38 -64 3 0 51 18 106 39 95 37 100 41 99 68 -3 55 -55
146 -123 214 -72 71 -154 117 -256 144 -85 23 -254 28 -343 11z"/>
<path d="M5483 2267 l-103 -31 0 -148 0 -148 -100 0 -100 0 0 -100 0 -100 99
0 99 0 4 -347 c3 -324 5 -351 24 -399 33 -80 69 -120 142 -156 62 -31 73 -33
199 -36 l133 -4 0 111 0 111 -98 0 c-107 0 -131 9 -157 60 -12 24 -15 84 -15
345 l0 315 135 0 135 0 0 100 0 100 -135 0 -135 0 0 180 c0 138 -3 180 -12
179 -7 0 -59 -15 -115 -32z"/>
<path d="M8323 2267 l-103 -31 0 -148 0 -148 -100 0 -100 0 0 -100 0 -100 99
0 99 0 4 -347 c3 -324 5 -351 24 -399 33 -80 69 -120 142 -156 62 -31 73 -33
199 -36 l133 -4 0 111 0 111 -98 0 c-107 0 -131 9 -157 60 -12 24 -15 84 -15
345 l0 315 135 0 135 0 0 100 0 100 -135 0 -135 0 0 180 c0 138 -3 180 -12
179 -7 0 -59 -15 -115 -32z"/>
<path d="M6425 1960 c-59 -12 -123 -37 -175 -67 -50 -30 -170 -140 -170 -157
0 -6 39 -38 86 -72 l86 -60 57 56 c142 142 352 132 431 -20 10 -19 20 -46 21
-59 4 -24 2 -25 -211 -67 -240 -47 -309 -69 -378 -121 -62 -48 -78 -68 -109
-133 -33 -69 -37 -176 -8 -260 25 -76 108 -159 190 -189 166 -62 362 -22 483
99 l42 42 0 -76 0 -76 115 0 115 0 0 374 c0 205 -4 395 -9 422 -36 186 -159
315 -342 359 -69 16 -159 18 -224 5z m335 -765 c-27 -93 -98 -159 -204 -190
-185 -54 -354 64 -276 192 32 52 105 82 305 123 l180 36 3 -60 c2 -34 -2 -79
-8 -101z"/>
<path d="M7774 1955 c-84 -18 -158 -58 -215 -115 l-49 -49 0 74 0 75 -115 0
-115 0 0 -570 0 -570 115 0 115 0 0 328 c0 357 4 394 58 474 50 76 152 126
275 135 l67 6 0 113 0 114 -37 -1 c-21 0 -65 -7 -99 -14z"/>
<path d="M13955 1960 c-173 -35 -320 -148 -394 -304 -51 -105 -65 -170 -65
-286 1 -270 151 -481 404 -566 77 -26 253 -26 330 0 130 44 248 124 304 205
16 23 27 43 25 45 -2 2 -43 27 -92 55 l-87 52 -50 -50 c-71 -71 -144 -104
-244 -109 -67 -3 -92 0 -141 19 -247 93 -304 468 -98 649 68 59 140 83 239 78
100 -5 173 -38 244 -109 l50 -50 90 53 c49 29 90 55 90 58 0 4 -16 27 -36 53
-122 156 -370 246 -569 207z"/>
<path d="M10710 1946 c-76 -20 -138 -57 -190 -112 l-50 -53 0 80 0 79 -115 0
-115 0 0 -795 0 -795 115 0 115 0 2 310 3 310 35 -47 c37 -50 118 -106 180
-124 19 -5 67 -12 105 -15 240 -20 454 147 522 406 22 87 22 263 0 350 -67
259 -264 422 -505 419 -31 0 -77 -6 -102 -13z m193 -226 c72 -27 145 -104 177
-185 20 -50 24 -78 24 -165 0 -132 -24 -200 -97 -277 -68 -72 -133 -96 -242
-91 -130 7 -210 63 -269 187 -29 62 -31 73 -31 181 0 99 3 122 23 165 48 104
103 160 189 191 58 20 163 17 226 -6z"/>
<path d="M16443 1946 c-199 -46 -370 -202 -433 -396 -20 -60 -25 -96 -25 -180
0 -133 27 -223 100 -330 211 -310 651 -348 915 -79 106 107 164 252 164 409 0
257 -159 478 -404 560 -83 28 -230 35 -317 16z m280 -234 c70 -31 149 -111
183 -185 26 -54 29 -73 29 -157 0 -84 -3 -103 -29 -157 -34 -73 -113 -153
-183 -186 -39 -18 -66 -22 -148 -22 -87 0 -107 3 -157 27 -72 34 -137 98 -173
172 -37 75 -46 194 -22 277 32 110 129 210 236 244 66 21 202 15 264 -13z"/>
<path d="M17753 1946 c-199 -46 -370 -202 -433 -396 -20 -60 -25 -96 -25 -180
0 -133 27 -223 100 -330 211 -310 651 -348 915 -79 106 107 164 252 164 409 0
257 -159 478 -404 560 -83 28 -230 35 -317 16z m280 -234 c70 -31 149 -111
183 -185 26 -54 29 -73 29 -157 0 -84 -3 -103 -29 -157 -34 -73 -113 -153
-183 -186 -39 -18 -66 -22 -148 -22 -87 0 -107 3 -157 27 -72 34 -137 98 -173
172 -37 75 -46 194 -22 277 32 110 129 210 236 244 66 21 202 15 264 -13z"/>
<path d="M8920 1581 c0 -394 7 -463 56 -568 40 -84 142 -183 219 -212 171 -64
362 -20 481 113 l44 48 0 -81 0 -81 115 0 115 0 0 570 0 570 -114 0 -115 0 -3
-352 -3 -353 -31 -66 c-59 -125 -146 -184 -269 -183 -122 1 -207 67 -245 192
-18 59 -20 94 -20 413 l0 349 -115 0 -115 0 0 -359z"/>
</g>
</svg>
